<?xml version="1.0" encoding="UTF-8" standalone="no"?>
<!-- Created with Inkscape (http://www.inkscape.org/) -->

<svg
   xmlns:dc="http://purl.org/dc/elements/1.1/"
   xmlns:cc="http://creativecommons.org/ns#"
   xmlns:rdf="http://www.w3.org/1999/02/22-rdf-syntax-ns#"
   xmlns:svg="http://www.w3.org/2000/svg"
   xmlns="http://www.w3.org/2000/svg"
   xmlns:sodipodi="http://sodipodi.sourceforge.net/DTD/sodipodi-0.dtd"
   xmlns:inkscape="http://www.inkscape.org/namespaces/inkscape"
   width="129.64746mm"
   height="123.66305mm"
   viewBox="0 0 129.64746 123.66305"
   version="1.1"
   id="svg8"
   inkscape:version="0.92.4 (5da689c313, 2019-01-14)"
   sodipodi:docname="automation.svg">
  <defs
     id="defs2" />
  <sodipodi:namedview
     id="base"
     pagecolor="#ffffff"
     bordercolor="#666666"
     borderopacity="1.0"
     inkscape:pageopacity="0.0"
     inkscape:pageshadow="2"
     inkscape:zoom="0.7"
     inkscape:cx="-222.81865"
     inkscape:cy="284.30271"
     inkscape:document-units="mm"
     inkscape:current-layer="layer1"
     showgrid="false"
     fit-margin-top="0"
     fit-margin-left="0"
     fit-margin-right="0"
     fit-margin-bottom="0"
     inkscape:window-width="1920"
     inkscape:window-height="1057"
     inkscape:window-x="-8"
     inkscape:window-y="-8"
     inkscape:window-maximized="1" />
  <metadata
     id="metadata5">
    <rdf:RDF>
      <cc:Work
         rdf:about="">
        <dc:format>image/svg+xml</dc:format>
        <dc:type
           rdf:resource="http://purl.org/dc/dcmitype/StillImage" />
        <dc:title />
      </cc:Work>
    </rdf:RDF>
  </metadata>
  <g
     inkscape:label="Layer 1"
     inkscape:groupmode="layer"
     id="layer1">
    <g
       id="g4755"
       transform="translate(-9.5888773,-0.53669449)"
       style="fill:#f8f9fa;fill-opacity:1">
      <path
         inkscape:export-ydpi="96"
         inkscape:export-xdpi="96"
         style="fill:#f8f9fa;stroke-width:0.21960562;fill-opacity:1"
         id="path3777"
         d="m 50.885772,7.9375645 c 0.483815,-0.83799 1.560405,-1.12772 2.399891,-0.64304 l 6.977375,4.0283895 -5.50289,1.4745 0.909318,3.39359 11.296387,-3.02686 -3.026862,-11.2963795 -3.393598,0.90931 1.47449,5.50289 -6.977375,-4.02839 c -2.516225,-1.45274 -5.746943,-0.58707 -7.199683,1.92915 L 32.03121,33.567244 l 3.042947,1.75684 z m 0,0"
         inkscape:connector-curvature="0" />
      <path
         inkscape:export-ydpi="96"
         inkscape:export-xdpi="96"
         style="fill:#f8f9fa;stroke-width:0.23640595;fill-opacity:1"
         id="path3779"
         d="m 135.20188,46.089384 -11.90156,20.614124 -1.58729,-5.923884 -3.65322,0.978884 3.25841,12.16059 12.16059,-3.25843 -0.97888,-3.65322 -5.92388,1.5873 11.90157,-20.614114 c 1.56388,-2.70873 0.63198,-6.1866 -2.07674,-7.75048 l -8.18934,-4.72812 -1.89125,3.27575 8.18934,4.72812 c 0.90371,0.52175 1.21308,1.68138 0.69225,2.58348 z m 0,0"
         inkscape:connector-curvature="0" />
      <g
         style="fill:#f8f9fa;fill-opacity:1"
         inkscape:export-ydpi="96"
         inkscape:export-xdpi="96"
         transform="matrix(0.8474306,0,0,0.8474306,7.8940161,44.512854)"
         id="Engine-2"
         data-name="Engine">
        <path
           style="fill:#f8f9fa;fill-opacity:1"
           inkscape:connector-curvature="0"
           d="m 13,55 h 3 v 2 h -3 z"
           id="path3854" />
        <path
           style="fill:#f8f9fa;fill-opacity:1"
           inkscape:connector-curvature="0"
           d="m 24,55 h 4 v 2 h -4 z"
           id="path3856" />
        <path
           style="fill:#f8f9fa;fill-opacity:1"
           inkscape:connector-curvature="0"
           d="m 48,55 h 3 v 2 h -3 z"
           id="path3858" />
        <path
           style="fill:#f8f9fa;fill-opacity:1"
           inkscape:connector-curvature="0"
           d="m 36,55 h 4 v 2 h -4 z"
           id="path3860" />
        <path
           style="fill:#f8f9fa;fill-opacity:1"
           inkscape:connector-curvature="0"
           d="m 32,59 a 3,3 0 1 1 3,-3 3,3 0 0 1 -3,3 z m 0,-4 a 1,1 0 1 0 1,1 1,1 0 0 0 -1,-1 z"
           id="path3862" />
        <path
           style="fill:#f8f9fa;fill-opacity:1"
           inkscape:connector-curvature="0"
           d="m 44,59 a 3,3 0 1 1 3,-3 3,3 0 0 1 -3,3 z m 0,-4 a 1,1 0 1 0 1,1 1,1 0 0 0 -1,-1 z"
           id="path3864" />
        <path
           style="fill:#f8f9fa;fill-opacity:1"
           inkscape:connector-curvature="0"
           d="m 55,59 a 3,3 0 1 1 3,-3 3,3 0 0 1 -3,3 z m 0,-4 a 1,1 0 1 0 1,1 1,1 0 0 0 -1,-1 z"
           id="path3866" />
        <path
           style="fill:#f8f9fa;fill-opacity:1"
           inkscape:connector-curvature="0"
           d="m 20,59 a 3,3 0 1 1 3,-3 3,3 0 0 1 -3,3 z m 0,-4 a 1,1 0 1 0 1,1 1,1 0 0 0 -1,-1 z"
           id="path3868" />
        <path
           style="fill:#f8f9fa;fill-opacity:1"
           inkscape:connector-curvature="0"
           d="m 9,59 a 3,3 0 1 1 3,-3 3,3 0 0 1 -3,3 z m 0,-4 a 1,1 0 1 0 1,1 1,1 0 0 0 -1,-1 z"
           id="path3870" />
        <path
           style="fill:#f8f9fa;fill-opacity:1"
           inkscape:connector-curvature="0"
           d="m 55,22 a 3,3 0 1 0 3,3 3,3 0 0 0 -3,-3 z m 0,4 a 1,1 0 1 1 1,-1 1,1 0 0 1 -1,1 z"
           id="path3872" />
        <path
           style="fill:#f8f9fa;fill-opacity:1"
           inkscape:connector-curvature="0"
           d="m 56,50 h -8 v -7 a 3,3 0 0 0 -1.826,-2.76 l 8.268,-8.268 C 54.627,31.986 54.812,32 55,32 A 7,7 0 1 0 53.293,18.219 L 42.915,7.841 A 4.963,4.963 0 0 0 43,7 4.983,4.983 0 0 0 34.026,4 H 20.974 A 4.983,4.983 0 1 0 14,10.974 v 8.408 A 3.977,3.977 0 0 0 13.142,21 H 11 a 1,1 0 0 0 -0.781,0.375 l -4,5 a 1,1 0 0 0 -0.051,1.18 l 4,6 a 1.0001245,1.0001245 0 0 0 1.664,-1.11 L 8.232,27.054 11.48,23 h 1.662 a 3.981,3.981 0 0 0 7.716,0 h 1.662 l 3.243,4.054 -3.6,5.391 a 1.0001245,1.0001245 0 0 0 1.664,1.11 l 4,-6 a 1,1 0 0 0 -0.051,-1.18 l -4,-5 A 1,1 0 0 0 23,21 H 20.858 A 3.977,3.977 0 0 0 20,19.382 V 10.974 A 4.993,4.993 0 0 0 20.974,10 h 13.052 a 4.568,4.568 0 0 0 4.507,1.946 l 10.12,10.121 a 6.872,6.872 0 0 0 -0.4,4.782 L 35.1,40 H 35 a 3,3 0 0 0 -3,3 v 7 H 26 V 37 A 1,1 0 0 0 25,36 H 9 A 1,1 0 0 0 8,37 V 50 A 6,6 0 0 0 8,62 H 56 A 6,6 0 0 0 56,50 Z M 17,24 a 2,2 0 1 1 2,-2 2,2 0 0 1 -2,2 z M 16,18.142 V 11.9 a 5,5 0 0 0 2,0 v 6.243 a 3.592,3.592 0 0 0 -2,0 z M 17,10 a 3,3 0 1 1 3,-3 3,3 0 0 1 -3,3 z M 33.1,8 H 21.9 a 5,5 0 0 0 0,-2 h 11.2 a 5,5 0 0 0 0,2 z M 55,20 a 5,5 0 1 1 -5,5 5.006,5.006 0 0 1 5,-5 z M 38,10 a 3,3 0 1 1 3,-3 3,3 0 0 1 -3,3 z m 2.642,1.227 A 5.024,5.024 0 0 0 42.1,9.851 l 9.212,9.212 a 7.044,7.044 0 0 0 -1.535,1.3 z M 49.131,28.8 a 7.035,7.035 0 0 0 3.052,2.6 l -8.6,8.6 H 37.934 Z M 34,43 a 1,1 0 0 1 1,-1 h 10 a 1,1 0 0 1 1,1 v 7 H 34 Z M 16,38 h 2 v 4.382 l -0.553,-0.277 a 1,1 0 0 0 -0.894,0 L 16,42.382 Z m -6,0 h 4 v 6 a 1,1 0 0 0 1.447,0.9 L 17,44.118 18.553,44.895 A 1,1 0 0 0 20,44 v -6 h 4 V 50 H 10 Z M 56,60 H 8 a 4,4 0 0 1 0,-8 h 48 a 4,4 0 0 1 0,8 z"
           id="path3874" />
        <path
           style="fill:#f8f9fa;fill-opacity:1"
           inkscape:connector-curvature="0"
           d="m 40,43 a 3,3 0 1 0 3,3 3,3 0 0 0 -3,-3 z m 0,4 a 1,1 0 1 1 1,-1 1,1 0 0 1 -1,1 z"
           id="path3876" />
      </g>
      <g
         style="fill:#f8f9fa;fill-opacity:1"
         inkscape:export-ydpi="96"
         inkscape:export-xdpi="96"
         transform="matrix(0.08811245,0,0,0.08811245,76.104657,79.086168)"
         id="g3924">
        <path
           style="fill:#f8f9fa;fill-opacity:1"
           inkscape:connector-curvature="0"
           d="M 335.746,0 H 107.928 C 96.393,0 87.008,9.385 87.008,20.92 V 55 H 80.377 C 65.056,55 52.59,67.465 52.59,82.787 v 75.136 c 0,15.32 12.464,27.785 27.785,27.785 h 6.633 V 491.08 c 0,11.536 9.385,20.92 20.92,20.92 H 438.49 c 11.535,0 20.92,-9.385 20.92,-20.92 v -86.202 c 0,-4.142 -3.358,-7.5 -7.5,-7.5 -4.142,0 -7.5,3.358 -7.5,7.5 v 86.202 c 0,3.265 -2.656,5.92 -5.92,5.92 H 107.929 c -3.265,0 -5.92,-2.656 -5.92,-5.92 V 145.139 h 32.5 c 4.142,0 7.5,-3.358 7.5,-7.5 0,-4.142 -3.358,-7.5 -7.5,-7.5 H 80.375 c -4.607,0 -8.956,1.127 -12.785,3.12 V 82.787 C 67.59,75.736 73.327,70 80.377,70 h 117.275 c 7.051,0 12.788,5.736 12.788,12.787 v 34.564 c 0,7.051 -5.736,12.787 -12.788,12.787 h -28.145 c -4.142,0 -7.5,3.358 -7.5,7.5 0,4.142 3.358,7.5 7.5,7.5 h 28.145 c 15.322,0 27.788,-12.465 27.788,-27.787 V 82.787 C 225.44,67.465 212.975,55 197.653,55 H 102.008 V 20.92 c 0,-3.265 2.656,-5.92 5.92,-5.92 h 221.306 c 23.883,0 43.314,19.43 43.314,43.313 v 7.628 c 0,11.536 9.385,20.92 20.92,20.92 h 7.627 c 23.883,0 43.314,19.431 43.314,43.314 v 239.702 c 0,4.142 3.358,7.5 7.5,7.5 4.142,0 7.5,-3.358 7.5,-7.5 V 123.664 C 459.41,55.475 403.935,0 335.746,0 Z M 80.375,145.139 h 6.633 v 25.569 h -6.633 c -7.049,0 -12.785,-5.735 -12.785,-12.785 0,-7.05 5.736,-12.784 12.785,-12.784 z M 401.096,71.862 h -7.627 c -3.264,0 -5.92,-2.656 -5.92,-5.92 v -7.628 c 0,-13.542 -4.638,-26.018 -12.411,-35.927 28.285,11.039 50.847,33.602 61.886,61.887 -9.91,-7.774 -22.387,-12.412 -35.928,-12.412 z"
           id="path3911" />
        <path
           style="fill:#f8f9fa;fill-opacity:1"
           inkscape:connector-curvature="0"
           d="m 144.508,179.599 c -9.649,0 -17.5,7.851 -17.5,17.5 V 454.5 c 0,9.649 7.851,17.5 17.5,17.5 H 401.91 c 9.649,0 17.5,-7.851 17.5,-17.5 V 197.099 c 0,-9.649 -7.851,-17.5 -17.5,-17.5 z m 162.918,64.35 h 20.967 v 30.61 h -61.017 v -30.61 h 5.05 c 4.142,0 7.5,-3.358 7.5,-7.5 0,-4.142 -3.358,-7.5 -7.5,-7.5 h -5.05 v -34.35 h 61.017 v 34.35 h -20.967 c -4.142,0 -7.5,3.358 -7.5,7.5 0,4.142 3.358,7.5 7.5,7.5 z M 267.375,411.39 v -30.61 h 61.017 v 30.61 z m 61.018,15 V 457 H 267.376 V 426.39 Z M 176.358,335.169 v 30.61 h -34.35 v -30.61 z m -34.35,-15 v -30.61 h 34.35 v 30.61 z m 49.35,15 h 61.017 v 30.61 h -61.017 z m 76.017,0 h 61.017 v 30.61 h -61.017 z m 76.018,0 h 61.017 v 30.61 h -61.017 z m 0,-15 v -30.61 h 61.017 v 30.61 z m -15,0 h -61.017 v -30.61 h 61.017 z m -76.018,0 h -61.017 v -30.61 h 61.017 z m -61.017,-45.61 v -30.61 h 61.017 v 30.61 z m 0,-45.61 v -34.35 h 61.017 v 34.35 z m -15,45.61 h -34.35 v -30.61 h 34.35 z m -34.35,106.221 h 34.35 v 30.61 h -34.35 z m 49.35,0 h 61.017 v 30.61 h -61.017 z m 152.035,0 h 61.017 v 30.61 H 343.393 Z M 404.41,274.559 h -61.017 v -30.61 h 61.017 z m -262.402,-77.46 c 0,-1.378 1.122,-2.5 2.5,-2.5 h 31.85 v 34.35 h -34.35 z m 0,257.401 v -28.11 h 34.35 V 457 h -31.85 c -1.378,0 -2.5,-1.122 -2.5,-2.5 z m 49.35,-28.11 h 61.017 V 457 H 191.358 Z M 401.91,457 h -58.517 v -30.61 h 61.017 v 28.11 c 0,1.378 -1.122,2.5 -2.5,2.5 z m 2.5,-259.901 v 31.85 h -61.017 v -34.35 h 58.517 c 1.378,0 2.5,1.121 2.5,2.5 z"
           id="path3913" />
      </g>
      <g
         style="fill:#f8f9fa;fill-opacity:1"
         inkscape:export-ydpi="96"
         inkscape:export-xdpi="96"
         transform="matrix(0.08990795,0,0,0.08990795,74.560281,0.53669449)"
         id="g4607">
        <g
           style="fill:#f8f9fa;fill-opacity:1"
           id="g4253">
          <g
             style="fill:#f8f9fa;fill-opacity:1"
             id="g4251">
            <path
               style="fill:#f8f9fa;fill-opacity:1"
               inkscape:connector-curvature="0"
               d="M 400,0 H 112 C 92.432,0 76.168,14.144 72.736,32.736 54.144,36.168 40,52.432 40,72 v 368 c 0,22.056 17.944,40 40,40 h 288 c 19.568,0 35.832,-14.144 39.264,-32.736 C 425.856,443.832 440,427.568 440,408 V 40 C 440,17.944 422.056,0 400,0 Z m -8,440 c 0,13.232 -10.768,24 -24,24 H 80 C 66.768,464 56,453.232 56,440 V 72 C 56,58.768 66.768,48 80,48 h 240 v 64 c 0,4.424 3.576,8 8,8 h 64 z M 336,104 V 59.312 L 380.688,104 Z m 88,304 c 0,10.416 -6.712,19.216 -16,22.528 V 112 c 0,-2.216 -0.904,-4.216 -2.352,-5.664 L 333.672,34.36 C 332.216,32.904 330.216,32 328,32 H 89.472 C 92.784,22.712 101.584,16 112,16 h 288 c 13.232,0 24,10.768 24,24 z"
               id="path4249" />
          </g>
        </g>
        <g
           style="fill:#f8f9fa;fill-opacity:1"
           id="g4259">
          <g
             style="fill:#f8f9fa;fill-opacity:1"
             id="g4257">
            <path
               style="fill:#f8f9fa;fill-opacity:1"
               inkscape:connector-curvature="0"
               d="m 224,72 c -22.056,0 -40,17.944 -40,40 0,22.056 17.944,40 40,40 22.056,0 40,-17.944 40,-40 0,-22.056 -17.944,-40 -40,-40 z m 0,64 c -13.232,0 -24,-10.768 -24,-24 0,-13.232 10.768,-24 24,-24 13.232,0 24,10.768 24,24 0,13.232 -10.768,24 -24,24 z"
               id="path4255" />
          </g>
        </g>
        <g
           style="fill:#f8f9fa;fill-opacity:1"
           id="g4265">
          <g
             style="fill:#f8f9fa;fill-opacity:1"
             id="g4263">
            <rect
               style="fill:#f8f9fa;fill-opacity:1"
               x="80"
               y="176"
               width="80"
               height="16"
               id="rect4261" />
          </g>
        </g>
        <g
           style="fill:#f8f9fa;fill-opacity:1"
           id="g4271">
          <g
             style="fill:#f8f9fa;fill-opacity:1"
             id="g4269">
            <rect
               style="fill:#f8f9fa;fill-opacity:1"
               x="184"
               y="176"
               width="24"
               height="16"
               id="rect4267" />
          </g>
        </g>
        <g
           style="fill:#f8f9fa;fill-opacity:1"
           id="g4277">
          <g
             style="fill:#f8f9fa;fill-opacity:1"
             id="g4275">
            <rect
               style="fill:#f8f9fa;fill-opacity:1"
               x="240"
               y="176"
               width="80"
               height="16"
               id="rect4273" />
          </g>
        </g>
        <g
           style="fill:#f8f9fa;fill-opacity:1"
           id="g4283">
          <g
             style="fill:#f8f9fa;fill-opacity:1"
             id="g4281">
            <rect
               style="fill:#f8f9fa;fill-opacity:1"
               x="344"
               y="176"
               width="24"
               height="16"
               id="rect4279" />
          </g>
        </g>
        <g
           style="fill:#f8f9fa;fill-opacity:1"
           id="g4289">
          <g
             style="fill:#f8f9fa;fill-opacity:1"
             id="g4287">
            <rect
               style="fill:#f8f9fa;fill-opacity:1"
               x="80"
               y="208"
               width="80"
               height="16"
               id="rect4285" />
          </g>
        </g>
        <g
           style="fill:#f8f9fa;fill-opacity:1"
           id="g4295">
          <g
             style="fill:#f8f9fa;fill-opacity:1"
             id="g4293">
            <rect
               style="fill:#f8f9fa;fill-opacity:1"
               x="184"
               y="208"
               width="24"
               height="16"
               id="rect4291" />
          </g>
        </g>
        <g
           style="fill:#f8f9fa;fill-opacity:1"
           id="g4301">
          <g
             style="fill:#f8f9fa;fill-opacity:1"
             id="g4299">
            <rect
               style="fill:#f8f9fa;fill-opacity:1"
               x="240"
               y="208"
               width="80"
               height="16"
               id="rect4297" />
          </g>
        </g>
        <g
           style="fill:#f8f9fa;fill-opacity:1"
           id="g4307">
          <g
             style="fill:#f8f9fa;fill-opacity:1"
             id="g4305">
            <rect
               style="fill:#f8f9fa;fill-opacity:1"
               x="344"
               y="208"
               width="24"
               height="16"
               id="rect4303" />
          </g>
        </g>
        <g
           style="fill:#f8f9fa;fill-opacity:1"
           id="g4313">
          <g
             style="fill:#f8f9fa;fill-opacity:1"
             id="g4311">
            <rect
               style="fill:#f8f9fa;fill-opacity:1"
               x="80"
               y="240"
               width="80"
               height="16"
               id="rect4309" />
          </g>
        </g>
        <g
           style="fill:#f8f9fa;fill-opacity:1"
           id="g4319">
          <g
             style="fill:#f8f9fa;fill-opacity:1"
             id="g4317">
            <rect
               style="fill:#f8f9fa;fill-opacity:1"
               x="184"
               y="240"
               width="24"
               height="16"
               id="rect4315" />
          </g>
        </g>
        <g
           style="fill:#f8f9fa;fill-opacity:1"
           id="g4325">
          <g
             style="fill:#f8f9fa;fill-opacity:1"
             id="g4323">
            <rect
               style="fill:#f8f9fa;fill-opacity:1"
               x="240"
               y="240"
               width="80"
               height="16"
               id="rect4321" />
          </g>
        </g>
        <g
           style="fill:#f8f9fa;fill-opacity:1"
           id="g4331">
          <g
             style="fill:#f8f9fa;fill-opacity:1"
             id="g4329">
            <rect
               style="fill:#f8f9fa;fill-opacity:1"
               x="344"
               y="240"
               width="24"
               height="16"
               id="rect4327" />
          </g>
        </g>
        <g
           style="fill:#f8f9fa;fill-opacity:1"
           id="g4337">
          <g
             style="fill:#f8f9fa;fill-opacity:1"
             id="g4335">
            <rect
               style="fill:#f8f9fa;fill-opacity:1"
               x="80"
               y="272"
               width="80"
               height="16"
               id="rect4333" />
          </g>
        </g>
        <g
           style="fill:#f8f9fa;fill-opacity:1"
           id="g4343">
          <g
             style="fill:#f8f9fa;fill-opacity:1"
             id="g4341">
            <rect
               style="fill:#f8f9fa;fill-opacity:1"
               x="184"
               y="272"
               width="24"
               height="16"
               id="rect4339" />
          </g>
        </g>
        <g
           style="fill:#f8f9fa;fill-opacity:1"
           id="g4349">
          <g
             style="fill:#f8f9fa;fill-opacity:1"
             id="g4347">
            <rect
               style="fill:#f8f9fa;fill-opacity:1"
               x="240"
               y="272"
               width="80"
               height="16"
               id="rect4345" />
          </g>
        </g>
        <g
           style="fill:#f8f9fa;fill-opacity:1"
           id="g4355">
          <g
             style="fill:#f8f9fa;fill-opacity:1"
             id="g4353">
            <rect
               style="fill:#f8f9fa;fill-opacity:1"
               x="344"
               y="272"
               width="24"
               height="16"
               id="rect4351" />
          </g>
        </g>
        <g
           style="fill:#f8f9fa;fill-opacity:1"
           id="g4361">
          <g
             style="fill:#f8f9fa;fill-opacity:1"
             id="g4359">
            <rect
               style="fill:#f8f9fa;fill-opacity:1"
               x="80"
               y="320"
               width="80"
               height="16"
               id="rect4357" />
          </g>
        </g>
        <g
           style="fill:#f8f9fa;fill-opacity:1"
           id="g4367">
          <g
             style="fill:#f8f9fa;fill-opacity:1"
             id="g4365">
            <rect
               style="fill:#f8f9fa;fill-opacity:1"
               x="184"
               y="320"
               width="24"
               height="16"
               id="rect4363" />
          </g>
        </g>
        <g
           style="fill:#f8f9fa;fill-opacity:1"
           id="g4373">
          <g
             style="fill:#f8f9fa;fill-opacity:1"
             id="g4371">
            <rect
               style="fill:#f8f9fa;fill-opacity:1"
               x="240"
               y="320"
               width="80"
               height="16"
               id="rect4369" />
          </g>
        </g>
        <g
           style="fill:#f8f9fa;fill-opacity:1"
           id="g4379">
          <g
             style="fill:#f8f9fa;fill-opacity:1"
             id="g4377">
            <rect
               style="fill:#f8f9fa;fill-opacity:1"
               x="344"
               y="320"
               width="24"
               height="16"
               id="rect4375" />
          </g>
        </g>
        <g
           style="fill:#f8f9fa;fill-opacity:1"
           id="g4385">
          <g
             style="fill:#f8f9fa;fill-opacity:1"
             id="g4383">
            <rect
               style="fill:#f8f9fa;fill-opacity:1"
               x="80"
               y="352"
               width="80"
               height="16"
               id="rect4381" />
          </g>
        </g>
        <g
           style="fill:#f8f9fa;fill-opacity:1"
           id="g4391">
          <g
             style="fill:#f8f9fa;fill-opacity:1"
             id="g4389">
            <rect
               style="fill:#f8f9fa;fill-opacity:1"
               x="184"
               y="352"
               width="24"
               height="16"
               id="rect4387" />
          </g>
        </g>
        <g
           style="fill:#f8f9fa;fill-opacity:1"
           id="g4397">
          <g
             style="fill:#f8f9fa;fill-opacity:1"
             id="g4395">
            <rect
               style="fill:#f8f9fa;fill-opacity:1"
               x="240"
               y="352"
               width="80"
               height="16"
               id="rect4393" />
          </g>
        </g>
        <g
           style="fill:#f8f9fa;fill-opacity:1"
           id="g4403">
          <g
             style="fill:#f8f9fa;fill-opacity:1"
             id="g4401">
            <rect
               style="fill:#f8f9fa;fill-opacity:1"
               x="344"
               y="352"
               width="24"
               height="16"
               id="rect4399" />
          </g>
        </g>
        <g
           style="fill:#f8f9fa;fill-opacity:1"
           id="g4409">
          <g
             style="fill:#f8f9fa;fill-opacity:1"
             id="g4407">
            <rect
               style="fill:#f8f9fa;fill-opacity:1"
               x="80"
               y="384"
               width="80"
               height="16"
               id="rect4405" />
          </g>
        </g>
        <g
           style="fill:#f8f9fa;fill-opacity:1"
           id="g4415">
          <g
             style="fill:#f8f9fa;fill-opacity:1"
             id="g4413">
            <rect
               style="fill:#f8f9fa;fill-opacity:1"
               x="184"
               y="384"
               width="24"
               height="16"
               id="rect4411" />
          </g>
        </g>
        <g
           style="fill:#f8f9fa;fill-opacity:1"
           id="g4421">
          <g
             style="fill:#f8f9fa;fill-opacity:1"
             id="g4419">
            <rect
               style="fill:#f8f9fa;fill-opacity:1"
               x="240"
               y="384"
               width="80"
               height="16"
               id="rect4417" />
          </g>
        </g>
        <g
           style="fill:#f8f9fa;fill-opacity:1"
           id="g4427">
          <g
             style="fill:#f8f9fa;fill-opacity:1"
             id="g4425">
            <rect
               style="fill:#f8f9fa;fill-opacity:1"
               x="344"
               y="384"
               width="24"
               height="16"
               id="rect4423" />
          </g>
        </g>
        <g
           style="fill:#f8f9fa;fill-opacity:1"
           id="g4433">
          <g
             style="fill:#f8f9fa;fill-opacity:1"
             id="g4431">
            <rect
               style="fill:#f8f9fa;fill-opacity:1"
               x="80"
               y="416"
               width="80"
               height="16"
               id="rect4429" />
          </g>
        </g>
        <g
           style="fill:#f8f9fa;fill-opacity:1"
           id="g4439">
          <g
             style="fill:#f8f9fa;fill-opacity:1"
             id="g4437">
            <rect
               style="fill:#f8f9fa;fill-opacity:1"
               x="184"
               y="416"
               width="24"
               height="16"
               id="rect4435" />
          </g>
        </g>
        <g
           style="fill:#f8f9fa;fill-opacity:1"
           id="g4445">
          <g
             style="fill:#f8f9fa;fill-opacity:1"
             id="g4443">
            <rect
               style="fill:#f8f9fa;fill-opacity:1"
               x="240"
               y="416"
               width="80"
               height="16"
               id="rect4441" />
          </g>
        </g>
        <g
           style="fill:#f8f9fa;fill-opacity:1"
           id="g4451">
          <g
             style="fill:#f8f9fa;fill-opacity:1"
             id="g4449">
            <rect
               style="fill:#f8f9fa;fill-opacity:1"
               x="344"
               y="416"
               width="24"
               height="16"
               id="rect4447" />
          </g>
        </g>
        <g
           style="fill:#f8f9fa;fill-opacity:1"
           id="g4453" />
        <g
           style="fill:#f8f9fa;fill-opacity:1"
           id="g4455" />
        <g
           style="fill:#f8f9fa;fill-opacity:1"
           id="g4457" />
        <g
           style="fill:#f8f9fa;fill-opacity:1"
           id="g4459" />
        <g
           style="fill:#f8f9fa;fill-opacity:1"
           id="g4461" />
        <g
           style="fill:#f8f9fa;fill-opacity:1"
           id="g4463" />
        <g
           style="fill:#f8f9fa;fill-opacity:1"
           id="g4465" />
        <g
           style="fill:#f8f9fa;fill-opacity:1"
           id="g4467" />
        <g
           style="fill:#f8f9fa;fill-opacity:1"
           id="g4469" />
        <g
           style="fill:#f8f9fa;fill-opacity:1"
           id="g4471" />
        <g
           style="fill:#f8f9fa;fill-opacity:1"
           id="g4473" />
        <g
           style="fill:#f8f9fa;fill-opacity:1"
           id="g4475" />
        <g
           style="fill:#f8f9fa;fill-opacity:1"
           id="g4477" />
        <g
           style="fill:#f8f9fa;fill-opacity:1"
           id="g4479" />
        <g
           style="fill:#f8f9fa;fill-opacity:1"
           id="g4481" />
      </g>
    </g>
  </g>
</svg>
